<?xml version="1.0" encoding="UTF-8"?>
<!DOCTYPE svg PUBLIC "-//W3C//DTD SVG 1.1//EN" "http://www.w3.org/Graphics/SVG/1.1/DTD/svg11.dtd">
<svg xmlns="http://www.w3.org/2000/svg" version="1.1" width="512px" height="512px" style="shape-rendering:geometricPrecision; text-rendering:geometricPrecision; image-rendering:optimizeQuality; fill-rule:evenodd; clip-rule:evenodd" xmlns:xlink="http://www.w3.org/1999/xlink">
<g><path style="opacity:0.971" fill="#fefffe" d="M 318.5,68.5 C 320.308,68.4914 321.975,68.9914 323.5,70C 332.01,75.7549 340.343,81.7549 348.5,88C 336.221,105.945 323.554,123.612 310.5,141C 320.433,144.145 330.1,147.978 339.5,152.5C 340.583,153.365 340.749,154.365 340,155.5C 296.363,215.009 245.863,221.509 188.5,175C 182.967,169.802 177.8,164.302 173,158.5C 172.251,157.365 172.417,156.365 173.5,155.5C 183.103,149.865 193.103,145.032 203.5,141C 189.27,125.273 175.603,109.107 162.5,92.5C 170.833,85.3333 179.167,78.1667 187.5,71C 189.367,70.2888 190.867,70.7888 192,72.5C 208.167,92 224.333,111.5 240.5,131C 251.194,131.212 261.86,131.712 272.5,132.5C 275.113,130.631 277.279,128.297 279,125.5C 292.176,106.471 305.343,87.471 318.5,68.5 Z"/></g>
<g><path style="opacity:0.986" fill="#fefffe" d="M 147.5,172.5 C 148.675,172.281 149.675,172.614 150.5,173.5C 160.314,186.481 171.648,197.981 184.5,208C 198.047,215.191 211.88,221.691 226,227.5C 240.578,262.465 246.245,298.798 243,336.5C 235.08,378.015 216.413,413.682 187,443.5C 149.406,420.568 121.739,388.901 104,348.5C 87.4709,288.968 97.8042,234.635 135,185.5C 139.425,181.245 143.592,176.911 147.5,172.5 Z"/></g>
<g><path style="opacity:0.985" fill="#fefffe" d="M 362.5,172.5 C 366.332,173.818 369.499,176.152 372,179.5C 409.215,224.015 422.881,275.015 413,332.5C 403.156,366.026 385.323,394.526 359.5,418C 348.849,427.495 337.515,435.995 325.5,443.5C 304.382,421.988 288.215,396.988 277,368.5C 267.052,339.736 265.052,310.403 271,280.5C 274.288,262.346 279.288,244.679 286,227.5C 301.551,221.808 316.385,214.641 330.5,206C 342.41,195.926 353.076,184.759 362.5,172.5 Z"/></g>
</svg>
