<?xml version="1.0" encoding="UTF-8"?>
<!DOCTYPE svg PUBLIC "-//W3C//DTD SVG 1.1//EN" "http://www.w3.org/Graphics/SVG/1.1/DTD/svg11.dtd">
<svg xmlns="http://www.w3.org/2000/svg" version="1.1" width="512px" height="512px" style="shape-rendering:geometricPrecision; text-rendering:geometricPrecision; image-rendering:optimizeQuality; fill-rule:evenodd; clip-rule:evenodd" xmlns:xlink="http://www.w3.org/1999/xlink">
<g><path style="opacity:0.986" fill="#fefffe" d="M 234.5,68.5 C 316.474,63.5645 378.641,95.8979 421,165.5C 446.884,216.24 450.55,268.573 432,322.5C 402.635,391.518 350.802,431.685 276.5,443C 201.801,448.226 142.634,420.726 99,360.5C 68.8087,312.843 60.4754,261.51 74,206.5C 94.9038,138.596 139.404,94.4297 207.5,74C 216.554,71.7386 225.554,69.9053 234.5,68.5 Z M 257.5,115.5 C 321.939,118.479 366.772,149.479 392,208.5C 409.398,260.825 401.065,308.491 367,351.5C 332.603,389.297 290.103,405.13 239.5,399C 278.128,368.936 300.628,329.436 307,280.5C 313.778,220.165 296.278,168.331 254.5,125C 251.167,122.333 247.833,119.667 244.5,117C 249.019,116.825 253.353,116.325 257.5,115.5 Z"/></g>
</svg>
