<?xml version="1.0" encoding="UTF-8"?>
<!DOCTYPE svg PUBLIC "-//W3C//DTD SVG 1.1//EN" "http://www.w3.org/Graphics/SVG/1.1/DTD/svg11.dtd">
<svg xmlns="http://www.w3.org/2000/svg" version="1.1" width="512px" height="512px" style="shape-rendering:geometricPrecision; text-rendering:geometricPrecision; image-rendering:optimizeQuality; fill-rule:evenodd; clip-rule:evenodd" xmlns:xlink="http://www.w3.org/1999/xlink">
<g><path style="opacity:0.981" fill="#fefffe" d="M 280.5,68.5 C 292.807,66.8073 298.141,72.1406 296.5,84.5C 296.515,88.9021 296.015,93.2354 295,97.5C 289.532,112.07 284.366,126.737 279.5,141.5C 279.833,142.167 280.167,142.833 280.5,143.5C 335.617,150.278 376.784,177.611 404,225.5C 431.881,286.201 424.547,342.201 382,393.5C 337.465,438.597 284.298,453.43 222.5,438C 176.771,423.267 143.937,394.1 124,350.5C 118.207,337.404 116.207,323.737 118,309.5C 119.775,306.956 121.608,306.956 123.5,309.5C 129.692,324.886 137.192,339.552 146,353.5C 148.333,355.833 150.667,358.167 153,360.5C 148.482,352.471 144.149,344.137 140,335.5C 138.974,332.407 139.807,330.073 142.5,328.5C 150.466,334.756 157.3,342.09 163,350.5C 169.128,357.637 176.128,363.637 184,368.5C 184.5,368.333 185,368.167 185.5,368C 180.191,360.547 175.524,352.714 171.5,344.5C 172.337,342.495 173.837,341.495 176,341.5C 179.514,342.676 182.681,344.509 185.5,347C 189.699,351.534 194.199,355.701 199,359.5C 199.644,355.859 199.144,352.359 197.5,349C 198.124,346.709 199.624,345.543 202,345.5C 214.093,351.463 226.26,357.296 238.5,363C 265.897,369.312 288.73,361.812 307,340.5C 322.617,315.585 322.284,290.919 306,266.5C 299.104,258.225 290.77,251.891 281,247.5C 278.341,253.492 273.841,257.325 267.5,259C 214.147,271.003 160.814,283.003 107.5,295C 101.889,295.806 96.7225,294.639 92,291.5C 91.0631,286.597 91.7298,281.93 94,277.5C 108.902,248.015 125.569,219.681 144,192.5C 164.5,176.667 185,160.833 205.5,145C 233.799,122.536 258.799,97.0359 280.5,68.5 Z M 160.5,237.5 C 166.174,228.646 172.841,220.479 180.5,213C 187.578,207.711 194.745,202.544 202,197.5C 204.099,217.492 195.599,230.325 176.5,236C 171.246,237.271 165.913,237.771 160.5,237.5 Z"/></g>
</svg>
