<?xml version="1.0" encoding="UTF-8"?>
<!DOCTYPE svg PUBLIC "-//W3C//DTD SVG 1.1//EN" "http://www.w3.org/Graphics/SVG/1.1/DTD/svg11.dtd">
<svg xmlns="http://www.w3.org/2000/svg" version="1.1" width="512px" height="512px" style="shape-rendering:geometricPrecision; text-rendering:geometricPrecision; image-rendering:optimizeQuality; fill-rule:evenodd; clip-rule:evenodd" xmlns:xlink="http://www.w3.org/1999/xlink">
<g><path style="opacity:0.979" fill="#fefffe" d="M 254.5,68.5 C 255.675,68.281 256.675,68.6143 257.5,69.5C 273.913,99.9938 290.579,130.327 307.5,160.5C 328.018,153.542 348.684,147.875 369.5,143.5C 363.568,162.798 357.734,182.131 352,201.5C 351.219,202.944 351.386,204.277 352.5,205.5C 383.184,221.839 413.517,238.672 443.5,256C 413.184,273.495 382.517,290.495 351.5,307C 357.593,326.448 363.593,345.948 369.5,365.5C 369,365.833 368.5,366.167 368,366.5C 348.477,360.911 328.977,355.244 309.5,349.5C 308.833,349.833 308.167,350.167 307.5,350.5C 290.828,381.85 273.661,412.85 256,443.5C 238.339,412.85 221.172,381.85 204.5,350.5C 203.833,350.167 203.167,349.833 202.5,349.5C 183.025,355.27 163.525,360.936 144,366.5C 143.5,366.167 143,365.833 142.5,365.5C 148.407,345.948 154.407,326.448 160.5,307C 129.483,290.495 98.8165,273.495 68.5,256C 98.483,238.672 128.816,221.839 159.5,205.5C 160.614,204.277 160.781,202.944 160,201.5C 154.266,182.131 148.432,162.798 142.5,143.5C 143,143.167 143.5,142.833 144,142.5C 164.601,148.77 185.101,154.437 205.5,159.5C 222.113,129.272 238.446,98.9387 254.5,68.5 Z M 255.5,192.5 C 257.074,192.937 258.241,193.937 259,195.5C 265.533,208.737 272.7,221.57 280.5,234C 293.995,241.247 307.329,248.747 320.5,256.5C 307.297,264.267 293.963,271.767 280.5,279C 272.374,292.752 264.374,306.585 256.5,320.5C 248.747,307.329 241.247,293.995 234,280.5C 220.248,272.374 206.415,264.374 192.5,256.5C 206.415,248.626 220.248,240.626 234,232.5C 241.446,219.272 248.613,205.939 255.5,192.5 Z"/></g>
</svg>
