<?xml version="1.0" encoding="UTF-8"?>
<!DOCTYPE svg PUBLIC "-//W3C//DTD SVG 1.1//EN" "http://www.w3.org/Graphics/SVG/1.1/DTD/svg11.dtd">
<svg xmlns="http://www.w3.org/2000/svg" version="1.1" width="512px" height="512px" style="shape-rendering:geometricPrecision; text-rendering:geometricPrecision; image-rendering:optimizeQuality; fill-rule:evenodd; clip-rule:evenodd" xmlns:xlink="http://www.w3.org/1999/xlink">
<g><path style="opacity:0.992" fill="#fefffe" d="M 163.5,68.5 C 181.854,65.444 196.52,71.2773 207.5,86C 211.833,86.6667 216.167,86.6667 220.5,86C 231.266,76.1382 243.933,72.4715 258.5,75C 272.348,78.3578 282.015,86.5245 287.5,99.5C 290.85,99.665 294.183,99.4983 297.5,99C 322.693,87.3446 342.693,93.1779 357.5,116.5C 369.486,117.333 381.486,117.833 393.5,118C 412.502,121.335 425.002,132.169 431,150.5C 431.667,200.5 431.667,250.5 431,300.5C 421.995,354.82 393.495,395.32 345.5,422C 302.93,443.843 258.263,449.509 211.5,439C 147.76,422.922 105.593,383.755 85,321.5C 72.5606,264.335 87.0606,215.335 128.5,174.5C 129.306,197.835 130.139,221.168 131,244.5C 131.208,248.918 131.874,253.251 133,257.5C 134.836,251.309 135.836,244.975 136,238.5C 136.167,229 136.333,219.5 136.5,210C 135.677,172.472 134.511,134.972 133,97.5C 138.18,82.4841 148.347,72.8174 163.5,68.5 Z"/></g>
</svg>
