<?xml version="1.0" encoding="UTF-8"?>
<!DOCTYPE svg PUBLIC "-//W3C//DTD SVG 1.1//EN" "http://www.w3.org/Graphics/SVG/1.1/DTD/svg11.dtd">
<svg xmlns="http://www.w3.org/2000/svg" version="1.1" width="512px" height="512px" style="shape-rendering:geometricPrecision; text-rendering:geometricPrecision; image-rendering:optimizeQuality; fill-rule:evenodd; clip-rule:evenodd" xmlns:xlink="http://www.w3.org/1999/xlink">
<g><path style="opacity:0.977" fill="#fefffe" d="M 245.5,69.5 C 246.251,68.4265 247.251,68.2599 248.5,69C 267.581,87.0897 281.415,108.59 290,133.5C 291.94,140.866 292.774,148.366 292.5,156C 291.414,172.021 290.081,188.021 288.5,204C 285.886,217.985 291.553,225.485 305.5,226.5C 319.032,226.633 326.032,219.967 326.5,206.5C 324.675,191.524 320.008,177.524 312.5,164.5C 312.833,164.167 313.167,163.833 313.5,163.5C 346.688,181.522 371.522,207.522 388,241.5C 408.441,301.422 391.608,347.589 337.5,380C 325.164,386.834 312.164,392.001 298.5,395.5C 297.479,394.998 297.312,394.332 298,393.5C 309.61,384.6 318.61,373.6 325,360.5C 327.92,343.34 326.92,326.34 322,309.5C 318.934,322.045 313.934,333.711 307,344.5C 297.177,355.498 285.011,361.165 270.5,361.5C 290.852,348.767 296.019,331.434 286,309.5C 275.146,294.331 260.646,289.165 242.5,294C 226.373,300.303 217.706,312.137 216.5,329.5C 217.399,334.997 218.566,340.33 220,345.5C 212.169,338.833 207.169,330.5 205,320.5C 201.7,336.887 202.034,353.22 206,369.5C 214.511,398.188 233.678,414.355 263.5,418C 292.258,420.968 320.424,418.134 348,409.5C 348.5,409.833 349,410.167 349.5,410.5C 309.214,438.154 264.88,448.321 216.5,441C 173.222,428.384 142.389,401.551 124,360.5C 109.982,316.257 113.149,273.257 133.5,231.5C 134.359,230.226 135.026,230.392 135.5,232C 130.891,244.18 131.558,256.013 137.5,267.5C 146.277,249.911 156.444,233.244 168,217.5C 175.167,211 182.333,204.5 189.5,198C 203.781,188.052 217.781,177.719 231.5,167C 245.991,150.701 252.657,131.534 251.5,109.5C 251.777,95.6867 249.777,82.3534 245.5,69.5 Z"/></g>
</svg>
