<?xml version="1.0" encoding="UTF-8"?>
<!DOCTYPE svg PUBLIC "-//W3C//DTD SVG 1.1//EN" "http://www.w3.org/Graphics/SVG/1.1/DTD/svg11.dtd">
<svg xmlns="http://www.w3.org/2000/svg" version="1.1" width="512px" height="512px" style="shape-rendering:geometricPrecision; text-rendering:geometricPrecision; image-rendering:optimizeQuality; fill-rule:evenodd; clip-rule:evenodd" xmlns:xlink="http://www.w3.org/1999/xlink">
<g><path style="opacity:0.982" fill="#fefffe" d="M 441.5,93.5 C 442.693,93.9704 443.36,94.9704 443.5,96.5C 438.237,124.212 424.904,147.045 403.5,165C 378.758,183.71 352.425,200.043 324.5,214C 304.059,222.887 283.393,231.22 262.5,239C 257.554,240.806 252.888,243.139 248.5,246C 304.754,242.733 356.921,226.566 405,197.5C 399.405,218.496 387.905,235.663 370.5,249C 331.942,273.855 290.608,292.855 246.5,306C 286.658,307.636 324.158,298.469 359,278.5C 353.086,296.744 341.586,310.577 324.5,320C 298.258,332.955 271.924,345.622 245.5,358C 251.193,358.405 256.859,358.072 262.5,357C 282.161,353.042 301.661,348.542 321,343.5C 318.095,352.124 313.762,360.124 308,367.5C 275.188,406.226 233.355,423.059 182.5,418C 138.087,412.202 104.254,390.369 81,352.5C 56.4021,296.474 67.5687,248.974 114.5,210C 134.281,195.447 156.281,185.78 180.5,181C 259.522,173.162 334.522,151.495 405.5,116C 417.732,108.725 429.732,101.225 441.5,93.5 Z"/></g>
</svg>
