<?xml version="1.0" encoding="UTF-8"?>
<!DOCTYPE svg PUBLIC "-//W3C//DTD SVG 1.1//EN" "http://www.w3.org/Graphics/SVG/1.1/DTD/svg11.dtd">
<svg xmlns="http://www.w3.org/2000/svg" version="1.1" width="512px" height="512px" style="shape-rendering:geometricPrecision; text-rendering:geometricPrecision; image-rendering:optimizeQuality; fill-rule:evenodd; clip-rule:evenodd" xmlns:xlink="http://www.w3.org/1999/xlink">
<g><path style="opacity:0.992" fill="#fefffe" d="M 234.5,68.5 C 314.968,63.3164 376.801,94.3164 420,161.5C 444.133,205.1 450.133,251.1 438,299.5C 429.614,328.616 415.281,354.282 395,376.5C 392.633,380.999 393.467,384.832 397.5,388C 407.426,393.544 416.926,399.711 426,406.5C 429.42,413.574 427.587,419.074 420.5,423C 393.892,435.318 365.892,441.985 336.5,443C 308.833,443.667 281.167,443.667 253.5,443C 198.034,435.685 151.2,411.852 113,371.5C 69.4018,319.18 57.4018,260.18 77,194.5C 105.341,122.328 157.841,80.3282 234.5,68.5 Z M 184.5,205.5 C 186.825,216.96 193.492,224.794 204.5,229C 212.833,229.333 221.167,229.667 229.5,230C 225.354,251.076 212.687,259.742 191.5,256C 171.897,246.526 167.064,232.026 177,212.5C 179.396,209.933 181.896,207.6 184.5,205.5 Z M 320.5,205.5 C 332.609,213.309 336.776,224.309 333,238.5C 323.497,256.668 309.331,261.501 290.5,253C 281.873,247.581 277.539,239.748 277.5,229.5C 285.507,229.666 293.507,229.5 301.5,229C 313.19,225.433 319.524,217.6 320.5,205.5 Z"/></g>
</svg>
