<?xml version="1.0" encoding="UTF-8"?>
<!DOCTYPE svg PUBLIC "-//W3C//DTD SVG 1.1//EN" "http://www.w3.org/Graphics/SVG/1.1/DTD/svg11.dtd">
<svg xmlns="http://www.w3.org/2000/svg" version="1.1" width="512px" height="512px" style="shape-rendering:geometricPrecision; text-rendering:geometricPrecision; image-rendering:optimizeQuality; fill-rule:evenodd; clip-rule:evenodd" xmlns:xlink="http://www.w3.org/1999/xlink">
<g><path style="opacity:0.986" fill="#fefffe" d="M 395.5,75.5 C 401.833,75.5 408.167,75.5 414.5,75.5C 420.987,137.717 422.154,200.051 418,262.5C 415.819,295.265 408.819,326.932 397,357.5C 393.131,366.019 388.465,374.019 383,381.5C 336.579,429.823 280.413,446.99 214.5,433C 195.079,427.787 177.079,419.62 160.5,408.5C 159.417,407.635 159.251,406.635 160,405.5C 177.619,384.425 195.119,363.259 212.5,342C 239.373,335.532 266.373,329.532 293.5,324C 271.817,321.59 250.15,319.09 228.5,316.5C 243.348,301.485 258.015,286.319 272.5,271C 288.505,267.332 304.505,263.665 320.5,260C 308.236,256.189 295.902,252.689 283.5,249.5C 294.784,227.26 306.284,205.26 318,183.5C 300.99,202.675 283.823,221.675 266.5,240.5C 260,231.5 253.5,222.5 247,213.5C 248.507,229.052 250.674,244.552 253.5,260C 240.394,275.444 226.894,290.61 213,305.5C 207.136,288.24 201.469,270.907 196,253.5C 195.667,277.167 195.333,300.833 195,324.5C 176.659,347.004 158.159,369.337 139.5,391.5C 93.7766,346.322 77.2766,291.988 90,228.5C 104.679,168.822 141.179,129.322 199.5,110C 241.511,96.1975 284.511,86.8641 328.5,82C 350.973,79.6974 373.306,77.5308 395.5,75.5 Z"/></g>
</svg>
