<?xml version="1.0" encoding="UTF-8"?>
<!DOCTYPE svg PUBLIC "-//W3C//DTD SVG 1.1//EN" "http://www.w3.org/Graphics/SVG/1.1/DTD/svg11.dtd">
<svg xmlns="http://www.w3.org/2000/svg" version="1.1" width="512px" height="512px" style="shape-rendering:geometricPrecision; text-rendering:geometricPrecision; image-rendering:optimizeQuality; fill-rule:evenodd; clip-rule:evenodd" xmlns:xlink="http://www.w3.org/1999/xlink">
<g><path style="opacity:0.972" fill="#fefffe" d="M 158.5,96.5 C 189.177,110.396 219.51,125.062 249.5,140.5C 250.361,173.848 249.861,207.181 248,240.5C 219.351,226.378 190.685,212.045 162,197.5C 160.783,163.831 159.617,130.164 158.5,96.5 Z"/></g>
<g><path style="opacity:0.973" fill="#fefffe" d="M 348.5,96.5 C 350.311,105.446 351.145,114.78 351,124.5C 351.833,149.507 351.666,174.507 350.5,199.5C 321.272,213.364 292.106,227.364 263,241.5C 262.5,241.167 262,240.833 261.5,240.5C 262.112,238.057 262.445,235.557 262.5,233C 261.883,203.937 261.217,174.937 260.5,146C 289.744,129.236 319.078,112.736 348.5,96.5 Z"/></g>
<g><path style="opacity:0.971" fill="#fefffe" d="M 158.5,210.5 C 162.105,210.799 165.439,211.965 168.5,214C 194.753,227.923 221.086,241.756 247.5,255.5C 248.386,256.325 248.719,257.325 248.5,258.5C 219.845,273.632 191.511,289.465 163.5,306C 161.5,308 159.5,308 157.5,306C 129.015,289.664 100.682,273.164 72.5,256.5C 101.197,241.153 129.863,225.819 158.5,210.5 Z"/></g>
<g><path style="opacity:0.972" fill="#fefffe" d="M 349.5,210.5 C 356.705,213.101 363.705,216.267 370.5,220C 393.886,232.022 416.886,244.522 439.5,257.5C 409.879,273.644 380.546,290.311 351.5,307.5C 321.804,290.99 292.471,273.99 263.5,256.5C 292.26,241.123 320.927,225.79 349.5,210.5 Z"/></g>
<g><path style="opacity:0.971" fill="#fefffe" d="M 249.5,271.5 C 251.132,303.656 251.632,335.99 251,368.5C 221.468,385.181 191.634,401.181 161.5,416.5C 161.327,382.48 161.327,348.48 161.5,314.5C 190.863,300.152 220.196,285.818 249.5,271.5 Z"/></g>
<g><path style="opacity:0.972" fill="#fefffe" d="M 263.5,271.5 C 292.311,285.516 321.145,299.85 350,314.5C 351.334,348.514 352.334,382.514 353,416.5C 322.294,401.098 291.627,385.764 261,370.5C 261.735,337.571 262.568,304.571 263.5,271.5 Z"/></g>
</svg>
