<?xml version="1.0" encoding="UTF-8"?>
<!DOCTYPE svg PUBLIC "-//W3C//DTD SVG 1.1//EN" "http://www.w3.org/Graphics/SVG/1.1/DTD/svg11.dtd">
<svg xmlns="http://www.w3.org/2000/svg" version="1.1" width="512px" height="512px" style="shape-rendering:geometricPrecision; text-rendering:geometricPrecision; image-rendering:optimizeQuality; fill-rule:evenodd; clip-rule:evenodd" xmlns:xlink="http://www.w3.org/1999/xlink">
<g><path style="opacity:0.984" fill="#fefffe" d="M 234.5,91.5 C 293.362,85.8632 342.529,104.863 382,148.5C 423.37,201.083 432.037,258.75 408,321.5C 381.739,377.085 338.239,409.918 277.5,420C 206.367,425.848 151.534,399.015 113,339.5C 90.8031,299.786 85.1364,257.786 96,213.5C 117.775,144.879 163.941,104.212 234.5,91.5 Z M 245.5,162.5 C 286.09,160.208 316.923,176.208 338,210.5C 356.483,249.102 352.483,285.102 326,318.5C 292.089,351.513 253.589,358.013 210.5,338C 176.356,317.219 160.523,286.719 163,246.5C 170.887,199.114 198.387,171.114 245.5,162.5 Z"/></g>
</svg>
