<?xml version="1.0" encoding="UTF-8"?>
<!DOCTYPE svg PUBLIC "-//W3C//DTD SVG 1.1//EN" "http://www.w3.org/Graphics/SVG/1.1/DTD/svg11.dtd">
<svg xmlns="http://www.w3.org/2000/svg" version="1.1" width="512px" height="512px" style="shape-rendering:geometricPrecision; text-rendering:geometricPrecision; image-rendering:optimizeQuality; fill-rule:evenodd; clip-rule:evenodd" xmlns:xlink="http://www.w3.org/1999/xlink">
<g><path style="opacity:0.986" fill="#fefffe" d="M 233.5,68.5 C 291.3,63.3843 342.634,78.8843 387.5,115C 439.386,161.701 455.219,218.534 435,285.5C 423.874,314.129 406.374,338.129 382.5,357.5C 388.229,382.597 383.729,405.597 369,426.5C 351.516,445.91 331.683,448.744 309.5,435C 303.895,430.234 299.228,424.734 295.5,418.5C 279.041,445.049 257.375,450.549 230.5,435C 223.667,428.824 218.167,421.658 214,413.5C 207.265,427.904 196.432,437.737 181.5,443C 159.381,445.523 142.881,437.023 132,417.5C 121.967,397.319 119.8,376.319 125.5,354.5C 101.307,333.14 84.1403,307.14 74,276.5C 58.6632,212.515 75.4966,158.681 124.5,115C 156.359,89.0719 192.693,73.5719 233.5,68.5 Z M 251.5,153.5 C 282.743,153.193 310.743,162.36 335.5,181C 364.223,206.053 370.723,235.887 355,270.5C 339.364,293.777 317.864,308.944 290.5,316C 248.159,326.462 209.159,319.462 173.5,295C 140.131,266.823 134.631,233.989 157,196.5C 177.394,172.119 203.561,158.285 235.5,155C 241.016,154.827 246.349,154.327 251.5,153.5 Z"/></g>
</svg>
