<?xml version="1.0" encoding="UTF-8"?>
<!DOCTYPE svg PUBLIC "-//W3C//DTD SVG 1.1//EN" "http://www.w3.org/Graphics/SVG/1.1/DTD/svg11.dtd">
<svg xmlns="http://www.w3.org/2000/svg" version="1.1" width="512px" height="512px" style="shape-rendering:geometricPrecision; text-rendering:geometricPrecision; image-rendering:optimizeQuality; fill-rule:evenodd; clip-rule:evenodd" xmlns:xlink="http://www.w3.org/1999/xlink">
<g><path style="opacity:0.978" fill="#fefffe" d="M 241.5,68.5 C 283.333,64.2333 322.666,72.0667 359.5,92C 406.649,121.107 430.316,163.607 430.5,219.5C 431.687,259.435 420.187,295.102 396,326.5C 358.603,364.639 314.103,377.139 262.5,364C 208.505,344.966 184.005,306.8 189,249.5C 190.905,222.186 202.405,200.02 223.5,183C 245.074,170.442 268.074,167.108 292.5,173C 320.207,181.373 337.707,199.539 345,227.5C 349.531,260.29 336.031,281.457 304.5,291C 273.201,297.346 253.368,285.18 245,254.5C 244.264,245.374 247.097,237.541 253.5,231C 258.533,227.509 263.367,227.675 268,231.5C 269.255,238.059 269.922,244.726 270,251.5C 276.598,263.426 285.764,265.593 297.5,258C 299.969,255.559 301.802,252.726 303,249.5C 304.712,217.545 290.212,206.045 259.5,215C 248.131,219.034 240.964,226.868 238,238.5C 234.274,260.475 240.44,278.975 256.5,294C 280.266,306.82 303.933,306.486 327.5,293C 351.987,274.566 361.821,250.066 357,219.5C 348.708,181.545 325.875,157.712 288.5,148C 252.392,144.017 219.725,152.683 190.5,174C 164.091,199.032 151.424,229.865 152.5,266.5C 155.933,316.55 177.933,356.05 218.5,385C 230.877,392.682 244.21,398.015 258.5,401C 293.068,407.653 327.401,406.653 361.5,398C 378.841,392.995 394.841,385.329 409.5,375C 416.255,373.041 419.922,375.541 420.5,382.5C 419.901,385.702 418.734,388.702 417,391.5C 397.45,410.535 374.617,424.368 348.5,433C 272.948,455.154 203.948,442.487 141.5,395C 94.9171,354.944 75.0838,304.111 82,242.5C 86.4509,190.105 107.618,145.938 145.5,110C 173.346,86.5774 205.346,72.744 241.5,68.5 Z"/></g>
</svg>
