<?xml version="1.0" encoding="UTF-8"?>
<!DOCTYPE svg PUBLIC "-//W3C//DTD SVG 1.1//EN" "http://www.w3.org/Graphics/SVG/1.1/DTD/svg11.dtd">
<svg xmlns="http://www.w3.org/2000/svg" version="1.1" width="512px" height="512px" style="shape-rendering:geometricPrecision; text-rendering:geometricPrecision; image-rendering:optimizeQuality; fill-rule:evenodd; clip-rule:evenodd" xmlns:xlink="http://www.w3.org/1999/xlink">
<g><path style="opacity:0.991" fill="#fefffe" d="M 189.5,108.5 C 244.167,108.5 298.833,108.5 353.5,108.5C 346.99,152.908 340.156,197.241 333,241.5C 271.881,283.637 210.714,325.637 149.5,367.5C 122.777,359.037 96.11,350.37 69.5,341.5C 68.3335,312.506 68.1668,283.506 69,254.5C 109.001,205.668 149.168,157.002 189.5,108.5 Z"/></g>
<g><path style="opacity:0.969" fill="#fefffe" d="M 380.5,108.5 C 384.351,107.971 387.851,108.638 391,110.5C 408.809,166.092 426.309,221.759 443.5,277.5C 443.018,279.92 441.685,281.753 439.5,283C 427.642,292.358 415.642,301.525 403.5,310.5C 388.474,290.641 373.641,270.641 359,250.5C 358.125,249.127 357.625,247.627 357.5,246C 365.587,200.223 373.253,154.39 380.5,108.5 Z"/></g>
<g><path style="opacity:0.976" fill="#fefffe" d="M 339.5,266.5 C 353.638,286.087 367.305,306.087 380.5,326.5C 346.997,351.162 313.33,375.662 279.5,400C 276.93,402.459 273.93,403.459 270.5,403C 241.642,393.325 212.642,384.158 183.5,375.5C 183.281,374.325 183.614,373.325 184.5,372.5C 236.406,337.391 288.073,302.058 339.5,266.5 Z"/></g>
</svg>
