<?xml version="1.0" encoding="UTF-8"?>
<!DOCTYPE svg PUBLIC "-//W3C//DTD SVG 1.1//EN" "http://www.w3.org/Graphics/SVG/1.1/DTD/svg11.dtd">
<svg xmlns="http://www.w3.org/2000/svg" version="1.1" width="512px" height="512px" style="shape-rendering:geometricPrecision; text-rendering:geometricPrecision; image-rendering:optimizeQuality; fill-rule:evenodd; clip-rule:evenodd" xmlns:xlink="http://www.w3.org/1999/xlink">
<g><path style="opacity:0.987" fill="#fefffe" d="M 161.5,93.5 C 224.837,93.1667 288.17,93.5 351.5,94.5C 382.604,147.599 413.271,200.932 443.5,254.5C 413.148,308.704 382.148,362.537 350.5,416C 287.833,416.667 225.167,416.667 162.5,416C 130.955,363.08 99.7883,309.913 69,256.5C 68.3333,255.167 68.3333,253.833 69,252.5C 100.362,199.773 131.195,146.773 161.5,93.5 Z M 246.5,168.5 C 290.845,167.059 321.345,186.726 338,227.5C 348.93,271.114 335.763,305.281 298.5,330C 272.625,342.806 246.292,343.806 219.5,333C 180.829,311.821 164.995,279.321 172,235.5C 182.543,197.164 207.376,174.831 246.5,168.5 Z"/></g>
</svg>
